# xmcd
#
# Track frame offsets:
#	150
#	15286
#	33106
#	50061
#	64932
#	78324
#	99109
#	115379
#	133301
#	151192
#	166062
#	185045
#	197398
#	210720
#	228921
#	242138
#	260439
#	282546
#	301200
#	318897
#
# Disc length: 4456 seconds
#
# Revision: 4
# Processed by: cddbd v1.5.2PL0 Copyright (c) Steve Scherf et al.
# Submitted via: audiograbber 1.83.01
#
DISCID=08116614
DTITLE=Various Artist - New Country Collection Vol.03 [CD2)
DYEAR=2009
DGENRE=Country
TTITLE0=Carrie Underwood - Before He Cheats
TTITLE1=Shooter Jennings - Walk Of Life
TTITLE2=The Wilkinsons - Fast Car
TTITLE3=Tracy Lawrence and Brad Arnold - For The Love
TTITLE4=Brooks and Dunn - Johnny Cash Junkie (Buck Owens Freak)
TTITLE5=Sara Evans - You'll Always Be My Baby
TTITLE6=LeAnn Rimes - You Light Up My Life
TTITLE7=Cledus T. Judd - Garth Must Be Busy (Featuring Brooks and Dunn)
TTITLE8=Collin Raye - Little Rock (Album Version)
TTITLE9=Jo Dee Messina - My Give A Damn's Busted
TTITLE10=Laura Bryna - Hometown Heroes
TTITLE11=Carlene Carter - Break My Little Heart In Two
TTITLE12=Trick Pony - On A Mission
TTITLE13=Brad Paisley - The World
TTITLE14=Steff Nevers - Keep It Up
TTITLE15=Chuck Wicks - Stealing Cinderella
TTITLE16=Travis Tritt - Lord Have Mercy On The Working Man
TTITLE17=Sammy Sadler - I'll Always Have Denver (Featuring Steve Wariner)
TTITLE18=Patty Loveless - On Your Way Home
TTITLE19=Dwight Yoakam - Turn It On, Turn It Up, Turn Me Loose
EXTD=
EXTT0=
EXTT1=
EXTT2=
EXTT3=
EXTT4=
EXTT5=
EXTT6=
EXTT7=
EXTT8=
EXTT9=
EXTT10=
EXTT11=
EXTT12=
EXTT13=
EXTT14=
EXTT15=
EXTT16=
EXTT17=
EXTT18=
EXTT19=
PLAYORDER=
